# xmcd
#
# Track frame offsets: 
#        150
#        11713
#        26379
#        36919
#        52965
#        72867
#        92717
#        110131
#        126924
#        145297
#
# Disc length: 2227 seconds
#
# Revision: 0
# Processed by: cddbd v1.5.2PL0 Copyright (c) Steve Scherf et al.
# Submitted via: ExactAudioCopyFreeDBPlugin 1.0
#
DISCID=8908b10a
DTITLE=Lewis - L'Amour
DYEAR=1900
DGENRE=
TTITLE0=I Thought The World Of You
TTITLE1=Cool Night In Paris
TTITLE2=My Whole Life
TTITLE3=Even Rainbows Turn Blue
TTITLE4=Like To See You Again
TTITLE5=Things Just Happen That Way
TTITLE6=Summer's Moon
TTITLE7=Let's Fall In Love Tonight
TTITLE8=Love Showered Me
TTITLE9=Romance For Two
EXTD=
EXTT0=
EXTT1=
EXTT2=
EXTT3=
EXTT4=
EXTT5=
EXTT6=
EXTT7=
EXTT8=
EXTT9=
PLAYORDER=
